<?xml version="1.0" encoding="utf-8"?>
<!-- Generator: Adobe Illustrator 16.0.0, SVG Export Plug-In . SVG Version: 6.00 Build 0)  -->
<!DOCTYPE svg PUBLIC "-//W3C//DTD SVG 1.1//EN" "http://www.w3.org/Graphics/SVG/1.1/DTD/svg11.dtd">
<svg version="1.1" id="Layer_1" xmlns="http://www.w3.org/2000/svg" xmlns:xlink="http://www.w3.org/1999/xlink" x="0px" y="0px"
	 width="832.623px" height="910.31px" viewBox="0 0 832.623 910.31" enable-background="new 0 0 832.623 910.31"
	 xml:space="preserve">
<g>
	<path d="M297.953,24.56C187.638,66.799,104.279,159.847,73.89,273.962C23.841,317.397-1.38,375.917,0.058,422.2
		c2.143,69.816,57.264,101.65,100.442,111.01c26.316,52.73,65.037,98.494,112.75,133.133
		c9.528,49.817,40.986,103.915,107.995,120.533c10.138,67.853,35.969,110.666,73.714,120.52
		c79.485,20.788,232.1-69.115,301.891-285.5c65.768-69.449,122.543-181.003,93.229-329.121
		c27.928-42.875,75.492-143.854,8.213-204.164c-33.236-29.767-90.33-33.883-152.422-18.033
		C544.503-2.939,415.134-20.324,297.953,24.56"/>
	<g>
		<defs>
			<path id="SVGID_1_" d="M555.444,696.715c-21.857,8.383-44.105,14.388-66.328,18.264c-49.64,48.262-104.001,66.596-152.957,58.239
				c7.263,61.856,28.389,108.835,63.062,117.901c69.399,18.145,215.775-65.805,282.814-277.853
				C647.479,648.908,604.835,677.792,555.444,696.715"/>
		</defs>
		<clipPath id="SVGID_2_">
			<use xlink:href="#SVGID_1_"  overflow="visible"/>
		</clipPath>
		
			<linearGradient id="SVGID_3_" gradientUnits="userSpaceOnUse" x1="73.4707" y1="621.6538" x2="98.4266" y2="621.6538" gradientTransform="matrix(1.5325 -13.7451 -13.7451 -1.5325 8941.6758 2718.9995)">
			<stop  offset="0" style="stop-color:#D91C5C"/>
			<stop  offset="0.2985" style="stop-color:#D91C5C"/>
			<stop  offset="0.4926" style="stop-color:#D11758"/>
			<stop  offset="0.8013" style="stop-color:#B90A4D"/>
			<stop  offset="1" style="stop-color:#A70045"/>
		</linearGradient>
		<polygon clip-path="url(#SVGID_2_)" fill="url(#SVGID_3_)" points="303.555,905.618 340.4,575.18 714.612,616.897 677.769,947.35 
					"/>
	</g>
	<g>
		<defs>
			<path id="SVGID_4_" d="M555.444,696.715c-21.857,8.383-44.105,14.388-66.328,18.264c-41.89,40.743-87.166,60.187-129.685,60.236
				c5.432,48.004,19.641,85.737,45.47,94.168c51.734,16.861,174.569-52.572,242.141-224.572
				C619.968,666.121,589.29,683.764,555.444,696.715"/>
		</defs>
		<clipPath id="SVGID_5_">
			<use xlink:href="#SVGID_4_"  overflow="visible"/>
		</clipPath>
		
			<radialGradient id="SVGID_6_" cx="85.9844" cy="517.2847" r="24.9491" gradientTransform="matrix(4.3085 0 0 -4.3085 61.9088 3092.8005)" gradientUnits="userSpaceOnUse">
			<stop  offset="0" style="stop-color:#D91C5C"/>
			<stop  offset="0.5284" style="stop-color:#D91C5C"/>
			<stop  offset="0.7776" style="stop-color:#C71754"/>
			<stop  offset="1" style="stop-color:#B4114B"/>
		</radialGradient>
		<rect x="359.431" y="644.811" clip-path="url(#SVGID_5_)" fill="url(#SVGID_6_)" width="287.611" height="241.434"/>
	</g>
	<path fill="#F598B1" d="M757.937,242.747c5.896,15.447,10.65,31.045,14.258,46.687c47.734-69.69,60.311-152.479,15.67-187.567
		C753.259,74.72,697.458,73.172,642.56,88.743C692.925,126.987,733.618,179.34,757.937,242.747"/>
	<g>
		<defs>
			<path id="SVGID_7_" d="M665.073,107.457c39.961,35.955,72.299,81.646,92.863,135.291c1.975,5.118,3.729,10.282,5.461,15.447
				c44.885-73.357,28.51-122.068,8.893-138.055c-14.865-12.111-36.939-17.848-62.404-17.848
				C695.778,102.292,680.62,104.045,665.073,107.457"/>
		</defs>
		<clipPath id="SVGID_8_">
			<use xlink:href="#SVGID_7_"  overflow="visible"/>
		</clipPath>
		
			<radialGradient id="SVGID_9_" cx="133.335" cy="672.0532" r="24.94" gradientTransform="matrix(5.5057 0 0 -6.1625 -46.7767 4220.3809)" gradientUnits="userSpaceOnUse">
			<stop  offset="0" style="stop-color:#F598B1"/>
			<stop  offset="0.7433" style="stop-color:#F598B1"/>
			<stop  offset="1" style="stop-color:#F37B90"/>
		</radialGradient>
		<rect x="665.073" y="102.292" clip-path="url(#SVGID_8_)" fill="url(#SVGID_9_)" width="143.209" height="155.903"/>
	</g>
	<path fill="#F598B1" d="M757.937,242.747c69.426,181.284-21.221,384.523-202.469,453.957
		c-181.295,69.471-384.494-21.201-453.968-202.46C32.05,312.963,122.724,109.749,303.994,40.312
		C485.218-29.159,688.489,61.487,757.937,242.747"/>
	<g>
		<defs>
			<path id="SVGID_10_" d="M312.01,61.244c-82.046,31.445-146.984,92.975-182.78,173.228
				c-35.773,80.244-38.207,169.649-6.749,251.741c31.434,82.071,92.938,146.938,173.204,182.773
				c80.29,35.781,169.67,38.18,251.716,6.734c169.453-64.889,254.445-255.531,189.557-424.935
				c-31.459-82.069-92.963-146.973-173.229-182.755c-42.863-19.141-88.311-28.718-133.899-28.718
				C390.084,39.313,350.246,46.598,312.01,61.244"/>
		</defs>
		<clipPath id="SVGID_11_">
			<use xlink:href="#SVGID_10_"  overflow="visible"/>
		</clipPath>
		
			<radialGradient id="SVGID_12_" cx="98.8652" cy="640.1548" r="24.9528" gradientTransform="matrix(17.2095 0 0 -17.2095 -1217.2449 11127.7637)" gradientUnits="userSpaceOnUse">
			<stop  offset="0" style="stop-color:#F598B1"/>
			<stop  offset="0.6928" style="stop-color:#F598B1"/>
			<stop  offset="1" style="stop-color:#F37B90"/>
		</radialGradient>
		<rect x="91.023" y="39.313" clip-path="url(#SVGID_11_)" fill="url(#SVGID_12_)" width="710.824" height="667.853"/>
	</g>
	<path d="M495.839,219.476c10.283,55.096,10.283,101.882-20.273,105.672c-25.975,3.213-42.911-41.816-55.655-98.582
		c-12.45-55.729-14.865-106.377,12.185-107.595C462.409,117.569,485.218,162.31,495.839,219.476"/>
	<path fill="#F27280" d="M742.538,271.647c4.41,13.755-9.186,30.397-30.387,37.122c-21.15,6.825-41.863,4.096-46.227-9.624
		c-4.434-13.78,9.139-33.383,30.314-40.194C717.415,252.213,738.155,257.879,742.538,271.647"/>
	<path fill="#FFFFFF" d="M470.572,171.643c6.358,27.193,1.267,40.292-12.427,43.263c-13.646,2.973-26.855-9.578-33.509-37.052
		c-5.287-21.955-4.285-46.93,11.186-48.686C449.055,127.646,464.019,143.57,470.572,171.643"/>
	<path fill="#F27280" d="M420.52,328.935c-1.289,16.045-24.561,27.33-51.999,25.122c-27.44-2.219-49.906-13.937-48.592-30.007
		c1.316-16.097,25.879-30.447,53.294-28.232C400.636,298.024,421.836,312.815,420.52,328.935"/>
	<path d="M638.513,198.251c13.719,54.242,16.131,106.269-12.451,108.863c-26.684,2.422-42.719-43.315-56.047-97.678
		c-12.963-52.659-21.955-97.896,3.607-100.138C602.571,106.776,624.817,143.983,638.513,198.251"/>
	<path fill="#FFFFFF" d="M612.829,157.363c6.775,21.527,4.557,37.208-8.65,39.303c-15.252,2.413-26.9-16.043-32.385-36.404
		c-5.775-21.443-6.848-40.206,7.164-41.046C593.823,118.312,606.202,136.151,612.829,157.363"/>
	<g>
		<defs>
			<path id="SVGID_13_" d="M438.235,250.484c6.946,35.063,19.592,65.828,35.99,63.477c15.768-2.342,20.201-32.081,13.6-62.978
				c-3.119,6.397-9.602,13.854-21.056,15.167C455.291,267.481,445.961,260.268,438.235,250.484z"/>
		</defs>
		<clipPath id="SVGID_14_">
			<use xlink:href="#SVGID_13_"  overflow="visible"/>
		</clipPath>
		
			<linearGradient id="SVGID_15_" gradientUnits="userSpaceOnUse" x1="146.0029" y1="629.3657" x2="170.9571" y2="629.3657" gradientTransform="matrix(-0.2458 -1.4655 -1.4655 0.2458 1429.0454 369.4928)">
			<stop  offset="0" style="stop-color:#007DC5"/>
			<stop  offset="0.1814" style="stop-color:#006FBA"/>
			<stop  offset="0.3552" style="stop-color:#0066B3"/>
			<stop  offset="0.6789" style="stop-color:#00559C"/>
			<stop  offset="1" style="stop-color:#004282"/>
		</linearGradient>
		<polygon clip-path="url(#SVGID_14_)" fill="url(#SVGID_15_)" points="439.77,325.474 427.49,252.287 492.89,241.32 
			505.173,314.51 		"/>
	</g>
	<g>
		<defs>
			<path id="SVGID_16_" d="M614.853,247.317c-11.016,1.777-19.545-3.522-27.316-12.6c12.33,44.313,25.416,64.78,38.33,62.734
				c12.209-1.946,17.398-29.424,9.33-66.756C632.054,238.337,625.792,245.572,614.853,247.317"/>
		</defs>
		<clipPath id="SVGID_17_">
			<use xlink:href="#SVGID_16_"  overflow="visible"/>
		</clipPath>
		
			<linearGradient id="SVGID_18_" gradientUnits="userSpaceOnUse" x1="148.3057" y1="520.1382" x2="173.2568" y2="520.1382" gradientTransform="matrix(-0.1972 -1.2852 -1.2852 0.1972 1317.4326 381.2391)">
			<stop  offset="0" style="stop-color:#007DC5"/>
			<stop  offset="0.1814" style="stop-color:#006FBA"/>
			<stop  offset="0.3552" style="stop-color:#0066B3"/>
			<stop  offset="0.6789" style="stop-color:#00559C"/>
			<stop  offset="1" style="stop-color:#004282"/>
		</linearGradient>
		<polygon clip-path="url(#SVGID_17_)" fill="url(#SVGID_18_)" points="588.804,307.856 577.204,232.279 641.997,222.338 
			653.597,297.913 		"/>
	</g>
	<g>
		<defs>
			<path id="SVGID_19_" d="M438.235,250.484c1.39,6.967,3.023,13.78,4.851,20.165c16.594,25.182,43.155,15.996,47.126-3.938
				c-0.439-5.116-1.266-10.44-2.387-15.728c-3.119,6.397-9.602,13.854-21.056,15.167
				C455.291,267.481,445.961,260.268,438.235,250.484z"/>
		</defs>
		<clipPath id="SVGID_20_">
			<use xlink:href="#SVGID_19_"  overflow="visible"/>
		</clipPath>
		
			<linearGradient id="SVGID_21_" gradientUnits="userSpaceOnUse" x1="112.1992" y1="628.7534" x2="137.1595" y2="628.7534" gradientTransform="matrix(-0.3807 -3.4929 -3.4929 0.3807 2709.8032 487.3315)">
			<stop  offset="0" style="stop-color:#0066B3"/>
			<stop  offset="0.3046" style="stop-color:#00559E"/>
			<stop  offset="0.9309" style="stop-color:#002B68"/>
			<stop  offset="1" style="stop-color:#002662"/>
		</linearGradient>
		<polygon clip-path="url(#SVGID_20_)" fill="url(#SVGID_21_)" points="438.846,301.423 433.364,251.02 489.603,244.891 
			495.083,295.293 		"/>
	</g>
	<g>
		<defs>
			<path id="SVGID_22_" d="M614.853,247.317c-11.016,1.777-19.545-3.522-27.316-12.6c2.121,7.639,4.24,14.451,6.406,20.664
				c15.67,21.357,41.572,14.22,44.4-5.165c-0.635-6.092-1.658-12.624-3.146-19.521C632.054,238.337,625.792,245.572,614.853,247.317
				"/>
		</defs>
		<clipPath id="SVGID_23_">
			<use xlink:href="#SVGID_22_"  overflow="visible"/>
		</clipPath>
		
			<linearGradient id="SVGID_24_" gradientUnits="userSpaceOnUse" x1="100.1616" y1="601.2651" x2="125.0953" y2="601.2651" gradientTransform="matrix(-0.8875 -5.633 -5.633 0.8875 4104.4536 383.9542)">
			<stop  offset="0" style="stop-color:#0066B3"/>
			<stop  offset="0.3046" style="stop-color:#00559E"/>
			<stop  offset="0.9309" style="stop-color:#002B68"/>
			<stop  offset="1" style="stop-color:#002662"/>
		</linearGradient>
		<polygon clip-path="url(#SVGID_23_)" fill="url(#SVGID_24_)" points="588.753,284.549 580.446,231.817 637.097,222.886 
			645.409,275.62 		"/>
	</g>
	<path fill="none" stroke="#000000" stroke-width="11.2286" stroke-linecap="round" d="M522.694,330.712
		c22.467,19.641,59.896,11.222,64.912-8.113"/>
	<path fill="#F16776" d="M504.784,824.693c-4.777-6.761-21.736-4.19-37.866,5.692c-16.082,9.903-25.246,23.428-20.471,30.191
		c4.801,6.761,21.736,4.216,37.892-5.666C500.421,844.979,509.585,831.458,504.784,824.693"/>
	<g>
		<defs>
			<path id="SVGID_25_" d="M262.156,521.977c-64.623,92.048-34.943,204.602,37.452,239.532
				c67.326,32.492,152.495,8.112,222.063-83.581c54.873-72.371,87.309-210.854,39.938-249.563
				c-20.906-17.03-49.246-24.975-80.68-24.975C406.216,403.391,313.986,448.213,262.156,521.977"/>
		</defs>
		<clipPath id="SVGID_26_">
			<use xlink:href="#SVGID_25_"  overflow="visible"/>
		</clipPath>
		
			<linearGradient id="SVGID_27_" gradientUnits="userSpaceOnUse" x1="112.333" y1="635.3433" x2="137.283" y2="635.3433" gradientTransform="matrix(-7.576 6.2081 6.2081 7.576 -2632.3062 -4959.2954)">
			<stop  offset="0" style="stop-color:#D91C5C"/>
			<stop  offset="0.2985" style="stop-color:#D91C5C"/>
			<stop  offset="0.4926" style="stop-color:#D11758"/>
			<stop  offset="0.8013" style="stop-color:#B90A4D"/>
			<stop  offset="1" style="stop-color:#A70045"/>
		</linearGradient>
		<polygon clip-path="url(#SVGID_26_)" fill="url(#SVGID_27_)" points="800.485,637.086 362.818,995.716 6.027,560.316 
			443.693,201.674 		"/>
	</g>
	<g>
		<defs>
			<path id="SVGID_28_" d="M455.732,427.624c-67.208,9.309-135.972,51.404-175.205,107.243
				c-28.534,40.681-38.33,89.186-26.927,133.204c8.749,33.652,29.096,60.334,55.729,73.199
				c61.432,29.68,135.971,0.186,194.431-76.928c51.195-67.487,76.074-192.078,43.615-218.529
				c-16.057-13.122-39.18-19.956-66.521-19.956C472.812,425.858,464.431,426.453,455.732,427.624"/>
		</defs>
		<clipPath id="SVGID_29_">
			<use xlink:href="#SVGID_28_"  overflow="visible"/>
		</clipPath>
		
			<radialGradient id="SVGID_30_" cx="97.9624" cy="623.7183" r="24.9404" gradientTransform="matrix(12.7263 0 0 -13.1369 -772.4074 8593.3242)" gradientUnits="userSpaceOnUse">
			<stop  offset="0" style="stop-color:#D91C5C"/>
			<stop  offset="0.3292" style="stop-color:#CB1756"/>
			<stop  offset="0.9494" style="stop-color:#A60B45"/>
			<stop  offset="1" style="stop-color:#A30A43"/>
		</radialGradient>
		<rect x="242.198" y="425.858" clip-path="url(#SVGID_29_)" fill="url(#SVGID_30_)" width="337.637" height="345.092"/>
	</g>
	<g>
		<defs>
			<path id="SVGID_31_" d="M335.792,568.127c-64.67,92.023-79.852,168.428-36.185,193.382
				c67.326,32.492,152.495,8.112,222.063-83.581c35.992-47.492,62.33-123.375,62.842-180.881
				c-2.264-47.542-23.658-66.379-53.777-66.379C473.277,430.692,384.067,499.337,335.792,568.127"/>
		</defs>
		<clipPath id="SVGID_32_">
			<use xlink:href="#SVGID_31_"  overflow="visible"/>
		</clipPath>
		
			<radialGradient id="SVGID_33_" cx="92.7778" cy="601.1138" r="24.9565" gradientTransform="matrix(13.3447 0 0 -17.6765 -836.7283 11448.2422)" gradientUnits="userSpaceOnUse">
			<stop  offset="0" style="stop-color:#B6265E"/>
			<stop  offset="0.2831" style="stop-color:#AB1F55"/>
			<stop  offset="0.772" style="stop-color:#8F0B3E"/>
			<stop  offset="1" style="stop-color:#800031"/>
		</radialGradient>
		<rect x="255.941" y="430.668" clip-path="url(#SVGID_32_)" fill="url(#SVGID_33_)" width="328.572" height="363.333"/>
	</g>
	<path fill="#F16776" d="M401.539,445.754c2.631,6.113,19.395,6.542,37.477,0.924c18.032-5.618,30.509-15.096,27.853-21.212
		c-2.606-6.138-19.397-6.542-37.454-0.949C411.359,430.131,398.858,439.638,401.539,445.754"/>
	<path fill="#F598B1" d="M143.924,249.763C34.417,296.247,1.396,406.571,23.158,456.549c22.1,50.72,97.616,88.904,206.221,44.409
		C329.044,413.051,229.527,194.121,143.924,249.763"/>
	<g>
		<defs>
			<path id="SVGID_34_" d="M143.95,249.763c-41.477,16.448-125.446,137.69-97.62,198.598
				c26.198,57.386,104.806,66.744,183.027,52.623c88.699-78.223,19.688-260.176-56.85-260.176
				C162.98,240.808,153.378,243.625,143.95,249.763"/>
		</defs>
		<clipPath id="SVGID_35_">
			<use xlink:href="#SVGID_34_"  overflow="visible"/>
		</clipPath>
		
			<radialGradient id="SVGID_36_" cx="57.8335" cy="638.8931" r="24.9467" gradientTransform="matrix(8.653 0 0 -8.945 -382.1453 5966.8291)" gradientUnits="userSpaceOnUse">
			<stop  offset="0" style="stop-color:#F598B1"/>
			<stop  offset="0.6928" style="stop-color:#F598B1"/>
			<stop  offset="0.8297" style="stop-color:#F48DA5"/>
			<stop  offset="1" style="stop-color:#F37B90"/>
		</radialGradient>
		<rect x="18.503" y="240.808" clip-path="url(#SVGID_35_)" fill="url(#SVGID_36_)" width="299.528" height="274.297"/>
	</g>
	<path d="M552.788,689.708c-13.744,5.242-27.705,9.541-41.742,12.977c71.982-80.24,109.314-236.025,55.291-280.117
		c-27.344-22.249-68.086-31.008-114.675-24.575c-75.077,10.356-151.86,57.335-195.648,119.671
		c-26.269,37.427-38.915,80.776-36.696,123.019c-39.427-30.34-71.689-68.925-94.766-113.553
		c31.238,2.338,67.619-3.182,107.655-19.25c29.313-11.746,24.929-26.1-5.677-13.842c-99.958,40.024-174.303,10.525-196.502-40.5
		c-9.26-21.237-7.09-54.292,5.678-86.311c11.356-28.497,41.28-79.901,111.139-110.567c28.584-12.548,25.465-27.523-5.824-13.768
		c-14.643,6.409-27.631,13.693-39.18,21.456C129.18,163.942,220.877,80.155,306.649,47.258
		c85.824-32.836,179.249-30.361,263.172,7.065c83.945,37.431,148.25,105.305,181.1,191.116
		c15.449,40.34,22.783,81.815,22.783,122.666C773.704,506.539,689.538,637.309,552.788,689.708 M401.125,883.873
		c-13.379-3.501-24.977-13.83-34.579-30.741c-10.308-18.143-17.496-42.801-21.588-71.118
		c49.513,4.887,101.514-16.165,147.543-60.039c60.555-7.812,127.955-40.573,172.67-82.512
		C594.87,829.75,461.165,899.563,401.125,883.873 M239.103,671.825c-12.551-48.26-1.9-101.309,29.17-145.55
		c41.522-59.117,114.283-103.66,185.435-113.43c42.424-5.898,79.074,1.72,103.172,21.333c14.109,11.552,20.299,33.788,20.299,60.934
		c0,55.288-25.609,131.05-61.479,178.284c-63.087,83.119-144.623,114.309-212.851,81.365
		C272.195,739.991,248.995,709.752,239.103,671.825 M783.231,107.749c15.814,12.402,24.369,32.481,24.76,58.083
		c0.559,32.564-11.795,70.139-32.822,105.106c-2.928-10.354-6.314-20.639-10.238-30.872
		c-22.418-58.458-58.895-108.863-105.854-147.764C706.255,81.517,753.065,84.064,783.231,107.749 M780.185,290.798
		c27.148-40.693,43.398-86.212,42.791-125.189c-0.512-30.263-11.039-54.338-30.484-69.64C755.11,66.63,698.53,65.604,644.069,80.518
		c-20.982-15.546-43.717-28.959-68.156-39.84C488.384,1.603,390.814-0.991,301.315,33.295
		c-89.528,34.309-184.27,114.747-219.383,246.123c-34.163,28.926-51.806,61.333-60.14,82.266
		c-14.4,36.114-16.447,72.687-5.482,97.839c14.061,32.321,45.933,57.323,90.428,65.374c26.39,54.758,65.746,101.264,114.82,135.998
		c13.355,84.14,75.125,112.213,107.805,118.671c4.261,32.065,19.736,105.829,67.936,118.78
		c40.546,10.904,98.541-10.807,151.199-55.9c43.35-37.125,102.322-106.17,140.336-225.596
		C770.097,531.782,806.601,409.566,780.185,290.798"/>
</g>
</svg>
