<?xml version="1.0" encoding="UTF-8"?>
<svg xmlns="http://www.w3.org/2000/svg" viewBox="0 0 1129.61 1138.21">
  <defs>
    <style>
      .cls-1 {
        fill: #3f3f3f;
      }

      .cls-1, .cls-2, .cls-3, .cls-4, .cls-5, .cls-6, .cls-7 {
        stroke-width: 0px;
      }

      .cls-8 {
        fill: #594b42;
        stroke: #594b42;
        stroke-linecap: round;
        stroke-linejoin: round;
        stroke-width: 4.22px;
      }

      .cls-2 {
        fill: #ffe8d6;
      }

      .cls-3 {
        fill: #333;
      }

      .cls-4 {
        fill: #fff;
      }

      .cls-5 {
        fill: #6b594d;
      }

      .cls-6 {
        fill: #353535;
      }

      .cls-7 {
        fill: #4a4a4a;
      }
    </style>
  </defs>
  <g id="Layer_7" data-name="Layer 7">
    <path class="cls-1" d="m368.51,549.71s-6.5,1.65-53.43,16.87c-12.06,3.91-28.05,8.82-44.43,22.48-1.4,1.16-3.07,2.51-4.78,4.24-16.9,17.07-19.05,40.43-20.62,60.46-3.22,41.05,8.94,75.01,11.72,83.89,10.77,34.42,27.48,80.8,53.62,134.84,9.25,19.11,31.07,34.92,55.53,34.2,31.92-.94,51.79-34.82,54.14-38.98,6.54,5.1,16.71,12.43,30.03,19.64,26.31,14.24,75.26,40.74,107.49,21.04,23.75-14.51,32.94-50.76,28.2-88.26,1.23-6.86,2.61-19.88-1.87-35.15-3.71-12.63-9.9-21.59-14.06-26.71-24.28-10.08-36.07-8.92-42.34-5.62-2.55,1.34-8.04,5.06-16.56,6.56-4.27.75-6.23.41-10.62,1.56-7.24,1.9-11.96,5.47-13.12,6.25-5.38,3.6-21.23,5.67-68.74-2.19-6.43-3.33-15.39-8.96-23.43-18.28-10.76-12.46-11.26-25.09-19.28-38.47-12.56-20.95-21.3-28.55-27.12-47.3-5.1-16.43-11.65-53.37,19.68-111.08Z"/>
  </g>
  <g id="Table">
    <path class="cls-8" d="m68.09,967.77c-.38,16.4-.76,32.81-1.14,49.21.32,1.64,1.45,6.22,5.59,9.96,2.95,2.67,6.08,3.69,7.73,4.1,152.27,47.11,263.38,81.08,278.4,85.3,2.88.81,9.1,2.46,17.34,2.81,0,0,11.81.51,23.9-2.81,15.61-4.28,284.82-97.89,652.4-226.84.92-.32,5.6-1.45,8.67-5.51,2.67-3.53,2.86-7.57,2.93-9.61.29-8.34.23-27.27-.59-52.26-230.87,80.11-461.75,160.23-692.62,240.34-100.87-31.57-201.75-63.13-302.62-94.7Z"/>
    <path class="cls-5" d="m725.01,730.6c-149.57,50.98-628.41,214.36-648.8,224.51-2.29,1.14-8.78,4.56-10,10.31-1.38,6.49,2.69,13.7,9.96,16.38,92.6,27.04,185.21,54.07,277.81,81.11,1.97.58,12.11,3.36,25.31,3.75,8.02.24,14.33-.51,17.34-.94,5.3-.75,9.82-1.81,13.37-2.81,362.34-131.3,642.82-231.79,645.74-233.28,4.93-2.52,9.21-4.71,9.54-8.25.25-2.73-1.96-5.05-2.66-5.78-2.14-2.25-4.71-2.81-5.62-2.97l-265.27-84.36s-10.69-3.69-21.56-4.69c-18.71-1.71-34.53,2.8-45.16,7.01Z"/>
  </g>
  <g id="Laptop">
    <path class="cls-6" d="m713.08,853.15c59.62-20.87,119.23-41.75,178.85-62.62,10.68-45.2,21.35-90.4,32.03-135.6.03-.26.5-5.08-3.34-8.05-3.41-2.64-7.36-1.61-7.79-1.49-48.47,17.55-96.94,35.1-145.4,52.65,0,0-8.07,1.64-13.22,6.77-5.44,5.41-6.65,12.22-7.1,14.5-2.5,12.86-15.66,63.52-34.02,133.84Z"/>
    <path class="cls-3" d="m582.39,825.13l-.39-7.81c45.75,11.14,91.5,22.29,137.24,33.43v8.75c-45.62-11.46-91.24-22.91-136.85-34.37Z"/>
    <path class="cls-3" d="m892.34,790.14c-57.7,20.21-115.4,40.41-173.1,60.62v8.75c57.7-20.62,115.4-41.24,173.1-61.87v-7.5Z"/>
    <path class="cls-1" d="m719.24,850.76l173.1-60.62,31.56-133.73c.05-.27.57-3.79-2.11-6.29-1.85-1.72-6.95-1.52-6.95-1.52l-143.1,51.87s-7.82,1.59-12.81,6.56c-5.26,5.24-6.45,11.88-6.87,14.06-2.41,12.47-15.12,61.55-32.81,129.67Z"/>
    <path class="cls-1" d="m714.08,849.51c-44.03-10.73-88.06-21.46-132.09-32.18l155.52-58.32c-7.81,30.17-15.62,60.33-23.43,90.5Z"/>
    <ellipse class="cls-4" cx="827.5" cy="755.95" rx="14.19" ry="7.87" transform="translate(-291.5 692.27) rotate(-39.16)"/>
    <ellipse class="cls-4" cx="823.16" cy="744.26" rx="11.5" ry="4.73" transform="translate(-36.77 1445.71) rotate(-81.32)"/>
    <ellipse class="cls-4" cx="839.95" cy="739.62" rx="14.56" ry="4.18" transform="translate(-183.41 1192.71) rotate(-65.25)"/>
  </g>
  <g id="Me">
    <path class="cls-2" d="m577.21,768.75c6.1-2.73,16.21-6.36,29.16-6.96,5.78-.27,17.66-.7,31.32,4.92,5.56,2.28,17.93,8.44,26.56,21.09,5.07,7.43,4.83,11.35,4.22,13.59-1.79,6.51-9.97,9.12-11.48,9.61-8.89,2.86-12.89-1.74-27.65-3.05-10.99-.97-19.69.61-22.5,1.17-12.13,2.44-24.84,8.2-24.84,8.2h0l-4.79-48.58Z"/>
    <path class="cls-2" d="m639.87,750c8.34.07,15.75.29,22.03.53,10.63.42,14.69.82,19.68,2.81,1.38.55,2.61,1.13,3.76,1.74,3.35,1.79,5.68,3.62,7.15,4.84,8.55,7.07,12.82,10.61,16.51,16.85,2.49,4.2,5.66,9.57,3.52,13.36-1.58,2.8-5.3,3.5-8.44,3.98-5.87.91-10.58-.38-16.64-2.11-8.48-2.42-13.59-4.69-13.59-4.69-2.83-1.25-3.89-1.92-6.02-2.13-4.63-.46-6.47,1.98-10.62,2.36-5.18.48-9.42-2.68-11.48-4.22,0,0-3.29-2.45-10.78-15.47,1.64-5.96,3.28-11.92,4.92-17.88Z"/>
    <path class="cls-2" d="m343.36,560.18c-3.17,7.15,16.03,18.92,12.88,27.6-1.48,4.08-7.12,7.82-5.77,13.22,0,0,.17.8.55,1.62,3.45,7.56,36.4,18.77,72.92,6.5,4.35-1.46,8.67-3.52,8.67-3.52,3.17-.82,8.2-2.6,12.65-6.8,5.75-5.43,7.45-11.99,10.08-22.73,1.28-5.23,2.75-12.79,3.28-22.15.16-1.05.43-2.64.82-4.57,1.09-5.36,2.23-8.69,3.16-11.95,1.57-5.52,2.91-10.21,2.69-12.65-1.09-12.45-46.09-8.02-75.28-30.38-24.95-19.11-31.37-52.45-31.66-52.3-.88.44,22.94,53.28,19.68,88.42-.31,3.31-.33,11.89-6.25,17.18-1.57,1.41-3.04,2.13-6.8,3.67-16.95,6.98-20.39,6.02-21.64,8.83Z"/>
    <path class="cls-1" d="m368.51,549.71s-6.5,1.65-53.43,16.87c-12.06,3.91-28.05,8.82-44.43,22.48-1.4,1.16-3.07,2.51-4.78,4.24-16.9,17.07-19.05,40.43-20.62,60.46-3.22,41.05,8.94,75.01,11.72,83.89,10.77,34.42,27.48,80.8,53.62,134.84,30.79-10.59,61.58-21.18,92.36-31.77,29.08-1.44,59.85-3.82,92.11-7.46,32.06-3.61,62.41-8.1,90.92-13.12,1.23-6.86,2.61-19.88-1.87-35.15-3.71-12.63-9.9-21.59-14.06-26.71-24.28-10.08-36.07-8.92-42.34-5.62-2.55,1.34-8.04,5.06-16.56,6.56-4.27.75-6.23.41-10.62,1.56-7.24,1.9-11.96,5.47-13.12,6.25-5.38,3.6-21.23,5.67-68.74-2.19-6.43-3.33-15.39-8.96-23.43-18.28-10.76-12.46-11.26-25.09-19.28-38.47-12.56-20.95-21.3-28.55-27.12-47.3-5.1-16.43-11.65-53.37,19.68-111.08Z"/>
    <path class="cls-1" d="m368.51,549.71c2.4,2.88,6.03,7.03,10.78,11.72,11.53,11.38,25.94,25.86,46.4,29.06,8.12,1.27,16.5,2.58,22.03-2.34,7.95-7.08,9.84-24.84,9.84-24.84,6.57,1.01,15.27,2.64,25.31,5.39,9.03,2.48,19.68,5.42,31.87,11.48.79.39,15.66,7.86,23.9,15.23,19.48,17.42,14.87,45.92,18.71,90.22,1.56,17.97,4.88,42.89,12.69,72.65-48.57,8.67-67.08,12.28-74.41,13.89-1.83.4-8.22,1.83-16.98,3.13-3.66.54-7.73,1.06-12.19,1.49-23.04,2.21-42.06.19-54.6-1.87-19.7-20.4-41.19-49.19-55.07-87.25-10.15-27.85-23.72-65.22-8.67-104.67,5.87-15.38,14.33-26.47,20.39-33.28Z"/>
    <path class="cls-1" d="m566.76,646.41c7.85,20.42,10.61,22.96,18.78,43.38,5.65,14.14,10.72,27.93,15.28,41.3,2.35,1.46,5.65,3.44,9.69,5.62,4.96,2.68,9.29,5.03,15,7.19,3.9,1.47,9.38,3.22,16.25,4.37.28,2.14.44,5.33-.31,9.06-.85,4.25-2.53,7.44-3.75,9.37-9.68-1.26-21.41-2.01-34.68-1.25-16.13.92-29.88,3.81-40.62,6.87-3.23-25.45-8.2-46.79-12.81-63.12-10.38-36.77-22.75-61.82-26.25-68.74-9.42-18.63-16.81-29.07-19.06-32.18-13.75-19.06-26.76-30.21-30.62-33.43-6.12-5.1-11.6-8.93-15.62-11.56,17.74,2.16,31.83,6.45,41.57,10.08,17.54,6.55,31.42,11.73,42.8,25.23,6.36,7.55,10.61,16.14,14.78,24.56,4.32,8.74,6.03,13.97,9.59,23.25Z"/>
    <path class="cls-2" d="m508.74,475.58c.56,3.58.55,16.36-5.22,29.85-1.16,2.71-2.31,4.89-3.17,6.41-.62,1.37-1.54,3.34-2.76,5.65-3.46,6.56-6.65,10.93-9.18,14.43-11.22,15.57-11.34,18.81-17.14,21.85-5.57,2.93-11.06,2.57-14.99,2.31-9.91-.65-16.72-5.26-22.97-9.49-8.07-5.46-20.78-14.06-24.08-25.52-.55-1.9-1.52-6.24-5.09-8.28-2.6-1.48-4.35-.64-7.58-1.81-3.58-1.3-4.91-4.18-7.15-7.15-5.43-7.19-10.55-7.34-14.53-11.2-7.83-7.61-6.6-25.14-2.05-33.41,17.65-32.07,131.76-10.3,135.9,16.36Z"/>
    <path class="cls-7" d="m411.16,469.3c.74-.08.66,2.95,3.81,9.22,1.56,3.09,5.74,11.87,6,11.85.48-.04.38-2.98,1.23-8.12.53-3.23,1.11-5.31,1.54-6.69.73-2.31,2.12-6.72,3.48-6.62.78.05,1.23,1.54,1.65,2.83.91,2.75,2.34,6.53,4.65,11.14,1.08-7.14,2.57-12.76,3.75-16.65,1.38-4.53,2.19-6.13,2.99-6.1,1.34.06,1.46,4.8,3.14,9.31,3.37,9.03,9.18,16.62,9.18,16.62.14-1.6.3-4.06.35-7.09.06-4.22-.16-6.03.57-6.32,1.04-.42,3.03,2.58,5.05,5.18,2.4,3.09,6.05,7.13,11.48,11.3-3.54-9.47-4.06-11.61-3.83-11.71.29-.12,1.63,3.01,4.53,7.07,1.97,2.76,3.86,4.83,5.19,6.18.21-1.88.4-4.64.12-7.96-.5-5.88-2.17-10.05-1.8-10.19.53-.19,4.37,8.13,6.07,10.71,2.12,3.22,2.12,2.62,3.27,4.64,1.15,2.02,4.62,14.96,4.62,14.96,0,0,2.99-11.93,3.77-11.85.51.05.86,1.7,1.05,4.96,5.21-18.49,7.05-22.36,7.73-22.21.41.09.41,2.38.43,6.97.01,4.2-.11,7.72-.24,10.25,1.11-1.44,2.71-3.65,4.4-6.53,1.38-2.35,1.93-3.62,2.34-3.51.94.24-1.25,7.21.36,16.06.39,2.14.9,3.88,1.29,5.04.59-9.18,1.01-11.54,1.31-11.53.5,0,.06,6.68,3.65,14.46.36.79.7,1.44.95,1.91-.38-9.6,1.65-16.31,3.63-20.72,1.82-4.05,3.26-5.42,5.09-10.48.59-1.65,2.28-6.62,2.99-15.63.89-11.34-.55-18.99,0-19.07.65-.09,1.8,10.36,6.83,23.99,1.19,3.23,2.32,5.88,3.14,7.72-.58-2.61-1.24-5.9-1.84-9.72-1.14-7.22-1.71-10.83-1.65-14.74,0,0,.29-18.07-.05-19.62-.04-.17-.08-.34-.08-.34-.93-6.55-4.36-10.18-4.19-10.3.31-.21,9.97,12.65,9.97,12.65,0,0-2.95-12.01-9.27-23.64-10.26-18.89-24-33.14-22.62-34.45.5-.48,2.18,1.57,6.99,2.86,3.88,1.04,8.65,1.28,8.58,1.27,0,0-8.74-8.5-19.51-15.83-6.76-4.6-15.68-11.3-24.91-15.51-21.34-9.72-42.46-6.53-55.13-4.62-12.68,1.92-30.75,4.65-48.65,18.52-7.73,5.99-20.37,17.88-27.84,37.11-7.28,18.73-5.88,34.7-5.22,41.37.21,2.14,1.47,11.49,5.97,22.75,1.97,4.93,4.49,11.1,9.81,17.89,2.86,3.64,17.1,26.68,20,31.19l2.87-5.19s5.12,4.1,11.44,20.39c-.22-6.32-.44-12.65-.66-18.97,0,0-5.29-5.31-9.97-12.65-2.71-4.24-7.02-12.75-4.6-21.13.78-2.72,2.58-6.39,4.07-6.23.89.1,1.35,1.53,2.31,4.08.86,2.27,2.15,5.47,3.94,9.31.36-.53.8-1.27,1.16-2.21,1.26-3.25.37-5.61.88-5.8.96-.36,4.24,8.17,10.4,18.03,0,0,.46.73,6.81,10.38.47-1.54,1.12-3.87,1.76-6.72,3.09-13.75,2.08-23.39,3.45-23.53Z"/>
  </g>
</svg>