<svg xmlns="http://www.w3.org/2000/svg" viewBox="0 0 712.17 556.64"><defs><style>.cls-1{fill:#607575;stroke:#607575;stroke-linecap:round;stroke-linejoin:round;stroke-width:3px;}.cls-2{fill:#6c8787;}.cls-3{fill:#e5f2d4;}.cls-4{fill:#aabb96;}.cls-5{fill:#c2d7a8;}.cls-6{fill:#fff;}.cls-7{fill:#ffe8d6;}.cls-8{fill:#4a4a4a;}</style></defs><g id="Table"><path class="cls-1" d="M210.67,558.67l-.81,35a12.73,12.73,0,0,0,9.47,10c108.3,33.5,187.32,57.66,198,60.66a53.13,53.13,0,0,0,12.34,2,62.42,62.42,0,0,0,17-2c11.1-3,202.57-69.62,464-161.33a11.83,11.83,0,0,0,6.16-3.92,11.63,11.63,0,0,0,2.09-6.83c.2-5.93.16-19.4-.42-37.17L425.9,626Z" transform="translate(-208.36 -111.22)"/><path class="cls-2" d="M677.88,390C571.5,426.25,230.94,542.44,216.44,549.67c-1.62.81-6.24,3.24-7.11,7.33-1,4.62,1.92,9.75,7.09,11.65L414,626.33A76.18,76.18,0,0,0,432,629a73.33,73.33,0,0,0,12.33-.67,70.52,70.52,0,0,0,9.51-2C711.54,533,911,461.48,913.1,460.42c3.51-1.79,6.56-3.35,6.79-5.86.18-1.95-1.39-3.6-1.89-4.12a7.3,7.3,0,0,0-4-2.11l-188.67-60A75.1,75.1,0,0,0,710,385,69.74,69.74,0,0,0,677.88,390Z" transform="translate(-208.36 -111.22)"/></g><g id="Laptop"><path class="cls-3" d="M669.4,477.15l127.19-44.54q11.4-48.23,22.78-96.44a6.7,6.7,0,0,0-2.37-5.73,6.6,6.6,0,0,0-5.54-1.06L708,366.83s-5.73,1.16-9.4,4.81a19.31,19.31,0,0,0-5,10.32C691.82,391.1,682.45,427.13,669.4,477.15Z" transform="translate(-208.36 -111.22)"/><path class="cls-4" d="M576.44,457.22l-.27-5.55,97.61,23.77v6.23Z" transform="translate(-208.36 -111.22)"/><path class="cls-4" d="M796.89,432.33,673.78,475.44v6.23l123.11-44Z" transform="translate(-208.36 -111.22)"/><path class="cls-5" d="M673.78,475.44l123.11-43.11,22.44-95.11a5.2,5.2,0,0,0-1.5-4.47c-1.31-1.23-4.94-1.08-4.94-1.08L711.11,368.56s-5.56,1.12-9.11,4.66a18.75,18.75,0,0,0-4.89,10C695.39,392.09,686.36,427,673.78,475.44Z" transform="translate(-208.36 -111.22)"/><path class="cls-5" d="M670.11,474.56l-93.94-22.89,110.6-41.48Q678.45,442.38,670.11,474.56Z" transform="translate(-208.36 -111.22)"/><ellipse class="cls-6" cx="750.77" cy="408.02" rx="10.09" ry="5.6" transform="translate(-297.39 454.47) rotate(-39.16)"/><ellipse class="cls-6" cx="747.69" cy="399.7" rx="8.18" ry="3.37" transform="translate(31.39 967.31) rotate(-81.32)"/><ellipse class="cls-6" cx="759.63" cy="396.4" rx="10.36" ry="2.97" transform="translate(-126.78 809.04) rotate(-65.25)"/></g><g id="Me"><path class="cls-7" d="M572.76,417.12a57.43,57.43,0,0,1,20.74-4.95,50.19,50.19,0,0,1,22.28,3.5,43.11,43.11,0,0,1,18.89,15c3.6,5.28,3.43,8.07,3,9.66-1.28,4.63-7.09,6.49-8.17,6.84-6.32,2-9.17-1.24-19.67-2.17a57.42,57.42,0,0,0-16,.83,96.08,96.08,0,0,0-17.66,5.84h0Z" transform="translate(-208.36 -111.22)"/><path class="cls-7" d="M617.33,403.79c5.93,0,11.2.2,15.67.38,7.56.3,10.45.58,14,2a24.69,24.69,0,0,1,2.67,1.24,29.32,29.32,0,0,1,5.09,3.44c6.07,5,9.11,7.54,11.74,12,1.77,3,4,6.81,2.5,9.5-1.12,2-3.77,2.49-6,2.84-4.18.64-7.52-.27-11.83-1.5a80.41,80.41,0,0,1-9.67-3.34c-2-.89-2.77-1.36-4.28-1.51-3.3-.33-4.6,1.41-7.55,1.68-3.68.34-6.7-1.91-8.17-3,0,0-2.34-1.74-7.67-11Q615.59,410.14,617.33,403.79Z" transform="translate(-208.36 -111.22)"/><path class="cls-7" d="M406.44,268.78c-2.25,5.08,11.41,13.46,9.16,19.63-1.05,2.9-5.06,5.56-4.1,9.4a6,6,0,0,0,.39,1.15c2.45,5.38,25.89,13.35,51.86,4.62a63.84,63.84,0,0,0,6.17-2.5,20.5,20.5,0,0,0,9-4.83c4.09-3.86,5.29-8.53,7.16-16.17a87,87,0,0,0,2.34-15.75c.11-.74.3-1.88.58-3.25.78-3.81,1.59-6.18,2.25-8.5,1.12-3.92,2.07-7.26,1.92-9-.78-8.85-32.78-5.7-53.54-21.6-17.74-13.6-22.31-37.31-22.52-37.2-.62.31,16.32,37.89,14,62.89-.22,2.35-.23,8.46-4.44,12.22-1.12,1-2.17,1.51-4.84,2.61C409.77,267.46,407.33,266.78,406.44,268.78Z" transform="translate(-208.36 -111.22)"/><path class="cls-8" d="M424.33,261.33s-4.62,1.18-38,12c-8.58,2.79-19.95,6.28-31.6,16-1,.83-2.18,1.78-3.4,3-12,12.15-13.55,28.76-14.66,43C334.38,364.53,343,388.68,345,395a700.32,700.32,0,0,0,38.13,95.9l65.7-22.6c20.68-1,42.56-2.72,65.5-5.3s44.39-5.76,64.67-9.33a54.34,54.34,0,0,0-11.33-44c-17.27-7.17-25.66-6.35-30.11-4a35,35,0,0,1-11.78,4.66c-3,.54-4.43.29-7.56,1.11a28.6,28.6,0,0,0-9.33,4.45c-3.82,2.56-15.1,4-48.89-1.56a55.93,55.93,0,0,1-16.67-13c-7.65-8.86-8-17.84-13.71-27.36-8.93-14.9-15.15-20.31-19.29-33.64C406.71,328.65,402,302.38,424.33,261.33Z" transform="translate(-208.36 -111.22)"/><path class="cls-8" d="M424.33,261.33c1.71,2.05,4.29,5,7.67,8.34,8.2,8.09,18.45,18.39,33,20.66,5.78.91,11.74,1.84,15.67-1.66,5.65-5,7-17.67,7-17.67a158,158,0,0,1,18,3.83A118.21,118.21,0,0,1,528.33,283c.56.28,11.14,5.59,17,10.83,13.86,12.39,10.58,32.66,13.31,64.17a307.39,307.39,0,0,0,9,51.67c-34.54,6.16-47.71,8.73-52.92,9.88-1.3.28-5.85,1.3-12.08,2.23-2.6.38-5.5.75-8.67,1.05a150.29,150.29,0,0,1-38.83-1.33A176.42,176.42,0,0,1,416,359.44c-7.22-19.8-16.87-46.38-6.17-74.44A77.36,77.36,0,0,1,424.33,261.33Z" transform="translate(-208.36 -111.22)"/><path class="cls-8" d="M565.33,330.11c5.58,14.53,7.55,16.33,13.36,30.85q6,15.09,10.87,29.37c1.67,1,4,2.45,6.88,4a82.31,82.31,0,0,0,10.67,5.11,61.66,61.66,0,0,0,11.56,3.12,19.92,19.92,0,0,1-2.89,13.11,132.73,132.73,0,0,0-53.56,4,306.32,306.32,0,0,0-9.11-44.89,275.38,275.38,0,0,0-18.67-48.89A169.76,169.76,0,0,0,520.89,303a130.9,130.9,0,0,0-21.78-23.78A118.75,118.75,0,0,0,488,271a128.69,128.69,0,0,1,29.56,7.17c12.48,4.65,22.35,8.34,30.44,17.94,4.53,5.37,7.55,11.48,10.51,17.47C561.59,319.79,562.8,323.52,565.33,330.11Z" transform="translate(-208.36 -111.22)"/><path class="cls-7" d="M524.07,208.61c.39,2.55.39,11.64-3.72,21.24a46.31,46.31,0,0,1-2.25,4.56c-.44,1-1.1,2.37-2,4a78.61,78.61,0,0,1-6.53,10.26c-8,11.08-8.06,13.38-12.19,15.54-4,2.08-7.86,1.83-10.66,1.64-7.05-.46-11.89-3.73-16.34-6.75-5.73-3.88-14.77-10-17.12-18.15-.39-1.35-1.08-4.44-3.62-5.88-1.84-1.06-3.09-.46-5.39-1.29-2.54-.93-3.48-3-5.08-5.09-3.86-5.11-7.5-5.22-10.33-8-5.57-5.41-4.7-17.88-1.46-23.76C440,174.17,521.12,189.65,524.07,208.61Z" transform="translate(-208.36 -111.22)"/><path class="cls-8" d="M454.66,204.15c.53-.06.47,2.1,2.71,6.55,1.11,2.2,4.09,8.45,4.27,8.43.35,0,.27-2.11.87-5.77a33.4,33.4,0,0,1,1.1-4.76c.52-1.64,1.51-4.78,2.48-4.71.55,0,.87,1.1,1.17,2a57.77,57.77,0,0,0,3.31,7.92A83.67,83.67,0,0,1,473.24,202c1-3.22,1.56-4.36,2.13-4.34.95,0,1,3.42,2.23,6.63a52.22,52.22,0,0,0,6.53,11.82c.1-1.14.22-2.89.25-5,.05-3-.12-4.29.41-4.5.74-.3,2.15,1.83,3.59,3.68a44.36,44.36,0,0,0,8.17,8c-2.52-6.74-2.89-8.26-2.72-8.33s1.15,2.15,3.22,5a36.27,36.27,0,0,0,3.69,4.4,28.85,28.85,0,0,0,.08-5.66c-.35-4.18-1.54-7.15-1.28-7.25s3.11,5.78,4.32,7.62c1.51,2.29,1.51,1.86,2.33,3.3S509.47,228,509.47,228s2.13-8.48,2.68-8.42c.37,0,.62,1.21.75,3.52,3.71-13.15,5-15.9,5.49-15.79.29.06.3,1.69.31,5,0,3-.08,5.49-.17,7.28a46.59,46.59,0,0,0,3.13-4.64c1-1.67,1.37-2.57,1.66-2.5.67.18-.89,5.13.26,11.43a25.91,25.91,0,0,0,.91,3.58c.42-6.53.72-8.21.93-8.2s0,4.74,2.59,10.28c.26.56.5,1,.68,1.36a32.12,32.12,0,0,1,2.58-14.74c1.29-2.88,2.32-3.85,3.62-7.45A42.37,42.37,0,0,0,537,197.57c.63-8.07-.4-13.51,0-13.56s1.28,7.37,4.85,17.06c.85,2.3,1.65,4.18,2.24,5.49-.41-1.86-.88-4.2-1.31-6.91-.81-5.14-1.22-7.71-1.17-10.49,0,0,.21-12.85,0-13.95,0-.12-.05-.24-.05-.24a17.16,17.16,0,0,0-3-7.32c.22-.15,7.09,9,7.09,9a79.75,79.75,0,0,0-6.59-16.81c-7.3-13.44-17.07-23.57-16.09-24.5.36-.34,1.55,1.11,5,2a35.24,35.24,0,0,0,6.1.91A115.66,115.66,0,0,0,520.17,127c-4.8-3.27-11.15-8-17.71-11-15.18-6.92-30.2-4.65-39.21-3.29s-21.87,3.31-34.61,13.17a61.13,61.13,0,0,0-23.51,55.82,64.93,64.93,0,0,0,4.25,16.18,47.8,47.8,0,0,0,7,12.72c2,2.59,12.16,19,14.22,22.19l2-3.69s3.65,2.91,8.14,14.5l-.48-13.49a60.54,60.54,0,0,1-7.09-9c-1.93-3-5-9.06-3.27-15,.55-1.93,1.83-4.54,2.89-4.43.64.07,1,1.09,1.65,2.9.61,1.62,1.53,3.89,2.8,6.62a7.69,7.69,0,0,0,.83-1.57c.89-2.31.26-4,.62-4.12.68-.26,3,5.81,7.4,12.82,0,0,.32.52,4.84,7.38.33-1.09.8-2.75,1.26-4.78C454.4,211.11,453.69,204.25,454.66,204.15Z" transform="translate(-208.36 -111.22)"/></g></svg>